<svg xmlns="http://www.w3.org/2000/svg" viewBox="0 0 160 160" role="img" aria-label="Star command crest">
  <defs>
    <linearGradient id="g" x1="0" x2="1" y1="0" y2="1"><stop stop-color="#ffe08a"/><stop offset=".55" stop-color="#d9a63b"/><stop offset="1" stop-color="#7b5520"/></linearGradient>
    <filter id="s" x="-20%" y="-20%" width="140%" height="140%"><feDropShadow dx="0" dy="8" stdDeviation="8" flood-color="#000" flood-opacity=".35"/></filter>
  </defs>
  <rect width="160" height="160" rx="34" fill="#122014"/>
  <path d="M80 14 128 32v35c0 35-19 61-48 79-29-18-48-44-48-79V32z" fill="#1c3421" stroke="url(#g)" stroke-width="7" filter="url(#s)"/>
  <path d="M35 84c16 6 29 5 40-2-10 18-25 27-48 25 4-8 6-15 8-23Zm90 0c-16 6-29 5-40-2 10 18 25 27 48 25-4-8-6-15-8-23Z" fill="#2d6e5f" stroke="#d9a63b" stroke-width="3"/>
  <path d="M80 38 91 66l30 2-23 19 7 30-25-16-25 16 7-30-23-19 30-2z" fill="url(#g)"/>
  <circle cx="80" cy="83" r="17" fill="#102016" stroke="#f3d170" stroke-width="5"/>
</svg>
