<svg xmlns="http://www.w3.org/2000/svg" viewBox="0 0 80 80" role="img" aria-label="sky badge"><rect width="80" height="80" rx="18" fill="#122014"/><path d="M40 10 64 23v20c0 15-8 26-24 37-16-11-24-22-24-37V23z" fill="#233b25" stroke="#d9a63b" stroke-width="4"/><g fill="#ffe08a"><path d="M40 28 L26 44 Q24 46 26 48 L30 48 L30 52 Q30 54 32 54 L48 54 Q50 54 50 52 L50 48 L54 48 Q56 46 54 44 Z" opacity=".9"/><circle cx="40" cy="42" r="4" fill="#233b25"/><path d="M24 42 L30 36 L30 42 Z" opacity=".7"/><path d="M56 42 L50 36 L50 42 Z" opacity=".7"/></g></svg>
